<?xml version="1.0" encoding="UTF-8" standalone="no"?>
<svg
   xml:space="preserve"
   width="338.12"
   height="298.01"
   viewBox="0 0 89.46 78.85"
   version="1.1"
   id="svg12"
   sodipodi:docname="logo-abandonados-DOING.svg"
   inkscape:version="1.3.2 (091e20e, 2023-11-25, custom)"
   xmlns:inkscape="http://www.inkscape.org/namespaces/inkscape"
   xmlns:sodipodi="http://sodipodi.sourceforge.net/DTD/sodipodi-0.dtd"
   xmlns="http://www.w3.org/2000/svg"
   xmlns:svg="http://www.w3.org/2000/svg"><defs
     id="defs12" /><sodipodi:namedview
     id="namedview12"
     pagecolor="#ffffff"
     bordercolor="#000000"
     borderopacity="0.25"
     inkscape:showpageshadow="2"
     inkscape:pageopacity="0.0"
     inkscape:pagecheckerboard="0"
     inkscape:deskcolor="#d1d1d1"
     inkscape:export-bgcolor="#ffffffff"
     inkscape:zoom="0.34227038"
     inkscape:cx="-724.57336"
     inkscape:cy="598.94169"
     inkscape:window-width="1920"
     inkscape:window-height="1002"
     inkscape:window-x="-8"
     inkscape:window-y="-8"
     inkscape:window-maximized="1"
     inkscape:current-layer="svg12" /><g
     inkscape:groupmode="layer"
     id="layer2"
     inkscape:label="marco"><path
       style="fill:#ffffff;fill-opacity:1;stroke:#004dad;stroke-width:5.29176856;stroke-linecap:round;stroke-linejoin:round;stroke-miterlimit:0;stroke-dasharray:none;stroke-opacity:1;paint-order:normal;opacity:1"
       id="path13"
       sodipodi:type="arc"
       sodipodi:cx="43.455074"
       sodipodi:cy="53.842194"
       sodipodi:rx="56.028679"
       sodipodi:ry="56.028679"
       sodipodi:start="0.15773316"
       sodipodi:end="0.10498737"
       sodipodi:open="true"
       sodipodi:arc-type="arc"
       d="M 98.788207,62.643174 A 56.028679,56.028679 0 0 1 35.384486,109.28657 56.028679,56.028679 0 0 1 -12.090897,46.5034 56.028679,56.028679 0 0 1 50.060797,-1.7957187 56.028679,56.028679 0 0 1 99.175253,59.713697" /></g><g
     id="g13"
     inkscape:label="dibu"
     transform="translate(-238.40958,-59.994327)"
     style="stroke-width:0.99988;stroke-dasharray:none"
     inkscape:export-filename="g13.png"
     inkscape:export-xdpi="851.84583"
     inkscape:export-ydpi="851.84583"><g
       transform="translate(-3.35,-205.12)"
       id="g7"
       style="stroke-width:0.99988;stroke-dasharray:none"><rect
         width="4.0799999"
         height="44.57"
         x="-17.92"
         y="243.35001"
         ry="3.71"
         style="fill:#666666;stroke-width:1.00114;stroke-linecap:round;stroke-linejoin:round;stroke-miterlimit:0;stroke-dasharray:none;paint-order:stroke markers fill"
         transform="matrix(0.99088942,-0.13467799,0.20467115,0.97883304,0,0)"
         id="rect1" /><rect
         width="50.700001"
         height="34.360001"
         x="-31.85"
         y="210.98"
         ry="3.01"
         style="fill:#333333;stroke-width:1.00009;stroke-linecap:round;stroke-linejoin:round;stroke-miterlimit:0;stroke-dasharray:none;paint-order:stroke markers fill"
         transform="matrix(0.98166,-0.19063,0.16198,0.9868,0,0)"
         id="rect2" /><g
         style="fill:#4398ff;fill-opacity:1;stroke-width:0.99988;stroke-dasharray:none"
         transform="translate(1.81,105.4)"
         id="g6"><rect
           width="4.3699999"
           height="25.66"
           x="16.58"
           y="109.61"
           ry="0.57999998"
           style="fill:#4398ff;fill-opacity:1;stroke-width:0.99988;stroke-linecap:round;stroke-linejoin:round;stroke-miterlimit:0;stroke-dasharray:none;paint-order:stroke markers fill"
           transform="matrix(0.99922904,-0.03925982,0.03856222,0.99925644,0,0)"
           id="rect3" /><rect
           width="4.3699999"
           height="25.66"
           x="26"
           y="108.72"
           ry="0.57999998"
           style="fill:#4398ff;fill-opacity:1;stroke-width:0.99988;stroke-linecap:round;stroke-linejoin:round;stroke-miterlimit:0;stroke-dasharray:none;paint-order:stroke markers fill"
           transform="matrix(0.99922904,-0.03925982,0.03856222,0.99925644,0,0)"
           id="rect4" /><rect
           width="4.3699999"
           height="25.120001"
           x="116.95"
           y="-20.99"
           ry="0.56999999"
           style="fill:#4398ff;fill-opacity:1;stroke-width:0.99989;stroke-linecap:round;stroke-linejoin:round;stroke-miterlimit:0;stroke-dasharray:none;paint-order:stroke markers fill"
           transform="matrix(0.16418685,0.98642926,-0.98534924,0.17055373,0,0)"
           id="rect5" /><rect
           width="4.3699999"
           height="25.43"
           x="126.22"
           y="-20.299999"
           ry="0.57999998"
           style="fill:#4398ff;fill-opacity:1;stroke-width:0.99988;stroke-linecap:round;stroke-linejoin:round;stroke-miterlimit:0;stroke-dasharray:none;paint-order:stroke markers fill"
           transform="matrix(0.16625289,0.98608576,-0.98570347,0.16848938,0,0)"
           id="rect6" /></g></g><g
       style="display:inline;fill:#333333;stroke-width:0.99988;stroke-dasharray:none"
       id="g12"><path
         d="m 83.43,244.35 a 9.27,10.87 0 0 1 -10.48,9.05 9.27,10.87 0 0 1 -7.85,-12.19 9.27,10.87 0 0 1 10.28,-9.37 9.27,10.87 0 0 1 8.12,11.94"
         style="fill:#333333;stroke-width:0.99988;stroke-linecap:round;stroke-linejoin:round;stroke-miterlimit:0;stroke-dasharray:none;paint-order:stroke markers fill"
         transform="translate(-3.35,-205.12)"
         id="path7" /><path
         d="m 92.81,279.53 c -1.13,-6.82 -1.59,-13.34 -4.21,-20.49 -9,-9.16 -19.37,-7.45 -25.42,-1.62 -2.76,2.67 7.33,1.07 8.85,5.88 1.85,5.82 4.04,16.41 4.04,16.41 5.6,-0.05 15.45,1.7 16.74,-0.18"
         style="fill:#333333;stroke-width:0.99988;stroke-linecap:round;stroke-linejoin:round;stroke-miterlimit:0;stroke-dasharray:none;paint-order:stroke markers fill"
         transform="translate(-3.35,-205.12)"
         id="path8" /><path
         d="m 69.87,263.48 c -12.51,-8.1 -21.76,-3.5 -33.4,5.43 -2.7,-9.84 0.6,-8.62 4.3,-9.94 -3,-6.69 -4.52,-1.95 -8.83,-1 0,0 -0.14,5.58 0.3,8.33 0.44,2.83 2.34,8.25 2.34,8.25 l 7.2,-0.22 5.35,-0.62 0.37,5.27 c 0,0 21.47,4.56 26.75,0.68 a 103,103 0 0 0 -4.38,-16.18"
         style="fill:#333333;stroke-width:0.99988;stroke-linecap:round;stroke-linejoin:round;stroke-miterlimit:0;stroke-dasharray:none;paint-order:stroke markers fill"
         transform="translate(-3.35,-205.12)"
         id="path9" /><path
         d="m 65.2,252.2 a 8.3,9.52 0 0 1 -9.4,7.92 8.3,9.52 0 0 1 -7.02,-10.67 8.3,9.52 0 0 1 9.2,-8.21 8.3,9.52 0 0 1 7.28,10.45"
         style="fill:#333333;stroke-width:0.99988;stroke-linecap:round;stroke-linejoin:round;stroke-miterlimit:0;stroke-dasharray:none;paint-order:stroke markers fill"
         transform="translate(-3.35,-205.12)"
         id="path10" /><path
         d="m 42.82,280.54 c 2.16,-1.73 5.03,-1.62 -3.77,-3.87 -1.07,-0.28 -2.15,4.54 -7.96,-5.66 -2.46,-4.32 -13.68,-1.98 -19.13,-0.01 -3.1,1.12 -4.63,9.14 -4.63,9.14"
         style="fill:#333333;stroke-width:0.99988;stroke-linecap:round;stroke-linejoin:round;stroke-miterlimit:0;stroke-dasharray:none;paint-order:stroke markers fill"
         transform="translate(-3.35,-205.12)"
         id="path11" /><path
         d="m 27.96,261.84 a 7.6,9.37 0 0 1 -8.6,7.8 7.6,9.37 0 0 1 -6.43,-10.5 7.6,9.37 0 0 1 8.43,-8.08 7.6,9.37 0 0 1 6.64,10.29"
         style="fill:#333333;stroke-width:0.99988;stroke-linecap:round;stroke-linejoin:round;stroke-miterlimit:0;stroke-dasharray:none;paint-order:stroke markers fill"
         transform="translate(-3.35,-205.12)"
         id="path12" /></g></g><g
     inkscape:groupmode="layer"
     id="layer1"
     inkscape:label="txt"><text
       xml:space="preserve"
       style="font-weight:bold;font-size:12.5455px;font-family:Lora;-inkscape-font-specification:'Lora Bold';letter-spacing:0.299357px;word-spacing:0.261365px;fill:#0061d9;fill-opacity:1;stroke:#ffffff;stroke-width:3.19836;stroke-linecap:round;stroke-linejoin:round;stroke-miterlimit:0;stroke-dasharray:none;stroke-opacity:1;paint-order:stroke markers fill"
       id="text12-1"
       y="86.449265"
       x="1.9918784"><tspan
         sodipodi:role="line"
         id="tspan12-7"
         style="font-style:normal;font-variant:normal;font-weight:normal;font-stretch:normal;font-size:12.5455px;font-family:Impact;-inkscape-font-specification:Impact;letter-spacing:0.299357px;fill:#0061d9;fill-opacity:1;stroke:#ffffff;stroke-width:3.19836;stroke-dasharray:none;stroke-opacity:1"
         x="1.9918784"
         y="86.449265">ACCIÓN VECINAL</tspan></text><text
       xml:space="preserve"
       style="font-weight:bold;font-size:12.5455px;font-family:Lora;-inkscape-font-specification:'Lora Bold';letter-spacing:0.299357px;word-spacing:0.261365px;fill:#0061d9;fill-opacity:1;stroke:#ffffff;stroke-width:3.19836;stroke-linecap:round;stroke-linejoin:round;stroke-miterlimit:0;stroke-dasharray:none;stroke-opacity:1;paint-order:stroke markers fill"
       x="9.0885677"
       y="131.32114"
       id="text12-1-4"><tspan
         sodipodi:role="line"
         id="tspan12-7-0"
         style="font-style:normal;font-variant:normal;font-weight:normal;font-stretch:normal;font-size:12.5455px;font-family:Impact;-inkscape-font-specification:Impact;letter-spacing:0.299357px;fill:#0061d9;fill-opacity:1;stroke:#ffffff;stroke-width:3.19836;stroke-dasharray:none;stroke-opacity:1"
         x="9.0885677"
         y="131.32114">ACCIÓN VECINAL</tspan></text><text
       xml:space="preserve"
       style="font-style:normal;font-variant:normal;font-weight:normal;font-stretch:normal;font-size:7.76126055px;font-family:sans-serif;-inkscape-font-specification:sans-serif;letter-spacing:0.232838px;word-spacing:0.264588px;fill:none;fill-opacity:1;stroke:#004dad;stroke-width:0.99988;stroke-linecap:round;stroke-linejoin:round;stroke-miterlimit:0;stroke-dasharray:none;stroke-opacity:1;paint-order:normal"
       x="-16.126646"
       y="96.205345"
       id="text13"><tspan
         sodipodi:role="line"
         id="tspan13"
         style="stroke-width:0.99988;font-size:7.76126055px;-inkscape-font-specification:sans-serif;font-family:sans-serif;font-weight:normal;font-style:normal;font-stretch:normal;font-variant:normal"
         x="-16.126646"
         y="96.205345">FEDERACIÓN ASOCIACIONES</tspan></text></g></svg>
